<mxfile host="app.diagrams.net" agent="Mozilla/5.0 (Windows NT 10.0; Win64; x64) AppleWebKit/537.36 (KHTML, like Gecko) Chrome/135.0.0.0 Safari/537.36 Edg/135.0.0.0" version="26.2.14">
  <diagram name="Page-1" id="lM-RM7nOecLVEk9FnUPG">
    <mxGraphModel dx="1485" dy="865" grid="1" gridSize="10" guides="1" tooltips="1" connect="1" arrows="1" fold="1" page="1" pageScale="1" pageWidth="2339" pageHeight="3300" math="0" shadow="0">
      <root>
        <mxCell id="0" />
        <mxCell id="1" parent="0" />
        <mxCell id="GSQ9UzFw_TCBcSxtlAvW-1" value="User" style="swimlane;fontStyle=1;align=center;verticalAlign=top;childLayout=stackLayout;horizontal=1;startSize=26;horizontalStack=0;resizeParent=1;resizeParentMax=0;resizeLast=0;collapsible=1;marginBottom=0;whiteSpace=wrap;html=1;" vertex="1" parent="1">
          <mxGeometry x="40" y="20" width="170" height="390" as="geometry" />
        </mxCell>
        <mxCell id="GSQ9UzFw_TCBcSxtlAvW-2" value="# userID: int&lt;div&gt;# phone: string&lt;/div&gt;&lt;div&gt;# email: string&lt;/div&gt;&lt;div&gt;# password: string&lt;/div&gt;&lt;div&gt;# regKey: string&lt;/div&gt;" style="text;strokeColor=none;fillColor=none;align=left;verticalAlign=top;spacingLeft=4;spacingRight=4;overflow=hidden;rotatable=0;points=[[0,0.5],[1,0.5]];portConstraint=eastwest;whiteSpace=wrap;html=1;" vertex="1" parent="GSQ9UzFw_TCBcSxtlAvW-1">
          <mxGeometry y="26" width="170" height="84" as="geometry" />
        </mxCell>
        <mxCell id="GSQ9UzFw_TCBcSxtlAvW-3" value="" style="line;strokeWidth=1;fillColor=none;align=left;verticalAlign=middle;spacingTop=-1;spacingLeft=3;spacingRight=3;rotatable=0;labelPosition=right;points=[];portConstraint=eastwest;strokeColor=inherit;" vertex="1" parent="GSQ9UzFw_TCBcSxtlAvW-1">
          <mxGeometry y="110" width="170" height="8" as="geometry" />
        </mxCell>
        <mxCell id="GSQ9UzFw_TCBcSxtlAvW-4" value="&lt;div&gt;&amp;lt;&amp;lt;update&amp;gt;&amp;gt;&lt;/div&gt;+ Login(email: string, password: string): User&lt;div&gt;&lt;br&gt;&lt;div&gt;+ Register(user: User, regKey: string): string&lt;/div&gt;&lt;div&gt;&lt;br&gt;&lt;/div&gt;&lt;div&gt;+ ResetPassword(email: string, newPassword: string, confirmPassword: string): string&lt;/div&gt;&lt;div&gt;&lt;br&gt;&lt;/div&gt;&lt;div&gt;+ Logout(): void&lt;/div&gt;&lt;div&gt;&lt;br&gt;&lt;/div&gt;&lt;div&gt;&amp;lt;&amp;lt;helper&amp;gt;&amp;gt;&lt;/div&gt;&lt;div&gt;+ verifyCode(email:string, code: string): boolean&lt;/div&gt;&lt;div&gt;+ genResetCode(): string&lt;/div&gt;&lt;/div&gt;" style="text;strokeColor=none;fillColor=none;align=left;verticalAlign=top;spacingLeft=4;spacingRight=4;overflow=hidden;rotatable=0;points=[[0,0.5],[1,0.5]];portConstraint=eastwest;whiteSpace=wrap;html=1;" vertex="1" parent="GSQ9UzFw_TCBcSxtlAvW-1">
          <mxGeometry y="118" width="170" height="272" as="geometry" />
        </mxCell>
        <mxCell id="GSQ9UzFw_TCBcSxtlAvW-5" value="&lt;div&gt;&lt;span style=&quot;font-weight: normal;&quot;&gt;&amp;lt;&amp;lt;Interface&amp;gt;&amp;gt;&lt;/span&gt;&lt;/div&gt;IAdmin" style="swimlane;fontStyle=1;align=center;verticalAlign=top;childLayout=stackLayout;horizontal=1;startSize=40;horizontalStack=0;resizeParent=1;resizeParentMax=0;resizeLast=0;collapsible=1;marginBottom=0;whiteSpace=wrap;html=1;" vertex="1" parent="1">
          <mxGeometry x="270" y="20" width="280" height="610" as="geometry" />
        </mxCell>
        <mxCell id="GSQ9UzFw_TCBcSxtlAvW-6" value="+ firstName: string&lt;div&gt;+ lastName: string&lt;/div&gt;&lt;div&gt;+ OA_ID: int&lt;/div&gt;" style="text;strokeColor=none;fillColor=none;align=left;verticalAlign=top;spacingLeft=4;spacingRight=4;overflow=hidden;rotatable=0;points=[[0,0.5],[1,0.5]];portConstraint=eastwest;whiteSpace=wrap;html=1;" vertex="1" parent="GSQ9UzFw_TCBcSxtlAvW-5">
          <mxGeometry y="40" width="280" height="50" as="geometry" />
        </mxCell>
        <mxCell id="GSQ9UzFw_TCBcSxtlAvW-7" value="" style="line;strokeWidth=1;fillColor=none;align=left;verticalAlign=middle;spacingTop=-1;spacingLeft=3;spacingRight=3;rotatable=0;labelPosition=right;points=[];portConstraint=eastwest;strokeColor=inherit;" vertex="1" parent="GSQ9UzFw_TCBcSxtlAvW-5">
          <mxGeometry y="90" width="280" height="8" as="geometry" />
        </mxCell>
        <mxCell id="GSQ9UzFw_TCBcSxtlAvW-8" value="&lt;div&gt;&amp;lt;&amp;lt;update&amp;gt;&amp;gt;&lt;/div&gt;&lt;div&gt;+ addWorkerKey (key:string): string&lt;/div&gt;&lt;div&gt;&lt;br&gt;&lt;/div&gt;&lt;div&gt;+ generateReport(): void&lt;/div&gt;&lt;div&gt;&lt;br&gt;&lt;/div&gt;&lt;div&gt;+ createCustomerOrder (customer: Customer, products: Product[]): CustomerOrder&lt;/div&gt;&lt;div&gt;&lt;br&gt;&lt;/div&gt;&lt;div&gt;+ createPurchaseOrder (supplierID: int, warehouseID: int, products: Product[]): PurchaseOrder&lt;/div&gt;&lt;div&gt;&lt;br&gt;&lt;/div&gt;&lt;div&gt;+ AssignTechnician(techID: int, repairID: int): string&lt;/div&gt;&lt;div&gt;&lt;br&gt;&lt;/div&gt;&lt;div&gt;+ updateCustomer (customerID: int): string&lt;/div&gt;&lt;div&gt;&lt;br&gt;&lt;/div&gt;&lt;div&gt;&amp;lt;&amp;lt;Accessors&amp;gt;&amp;gt;&lt;/div&gt;&lt;div&gt;+ getRapairStatus(repairID: int): string&lt;/div&gt;&lt;div&gt;+getProductCondition(prodID: int): string&lt;/div&gt;&lt;div&gt;+ getRepairs(): List&amp;lt;RepairProduct&amp;gt;&lt;/div&gt;&lt;div&gt;+ getReturns(): List&amp;lt;ReturnList&amp;gt;&lt;/div&gt;&lt;div&gt;+ getSuppliers(): List&amp;lt;Supplier&amp;gt;&lt;/div&gt;&lt;div&gt;+ getProducts(): List&amp;lt;Product&amp;gt;&lt;/div&gt;&lt;div&gt;+ getSupplier(supplierID:&amp;nbsp; &amp;nbsp; &amp;nbsp; &amp;nbsp;int): Supplier&lt;/div&gt;&lt;div&gt;+ getWarehouses(): List&amp;lt;Warehouse&amp;gt;&lt;/div&gt;&lt;div&gt;+ getCustomers(): List&amp;lt;Customer&amp;gt;&lt;/div&gt;&lt;div&gt;+ getTechnicians(): List&amp;lt;Technician&amp;gt;&lt;/div&gt;&lt;div&gt;+ getRepair(repairID: int): RepairProduct&lt;/div&gt;&lt;div&gt;+ getReturn(returnID: int): ReturnProduct&lt;/div&gt;&lt;div&gt;+ getWarehouse (warehouseID: int): Warehouse&lt;/div&gt;&lt;div&gt;+ getCustomer(customerID: int): Customer&lt;/div&gt;&lt;div&gt;+ getTechnician(techID: int): Technician&lt;/div&gt;&lt;div&gt;&lt;br&gt;&lt;/div&gt;&lt;div&gt;&amp;lt;&amp;lt;helper&amp;gt;&amp;gt;&lt;/div&gt;&lt;div&gt;+ genRegKey(role: string): string&lt;/div&gt;&lt;div&gt;&lt;br&gt;&lt;/div&gt;" style="text;strokeColor=none;fillColor=none;align=left;verticalAlign=top;spacingLeft=4;spacingRight=4;overflow=hidden;rotatable=0;points=[[0,0.5],[1,0.5]];portConstraint=eastwest;whiteSpace=wrap;html=1;" vertex="1" parent="GSQ9UzFw_TCBcSxtlAvW-5">
          <mxGeometry y="98" width="280" height="512" as="geometry" />
        </mxCell>
        <mxCell id="GSQ9UzFw_TCBcSxtlAvW-9" value="Owner" style="swimlane;fontStyle=1;align=center;verticalAlign=top;childLayout=stackLayout;horizontal=1;startSize=26;horizontalStack=0;resizeParent=1;resizeParentMax=0;resizeLast=0;collapsible=1;marginBottom=0;whiteSpace=wrap;html=1;" vertex="1" parent="1">
          <mxGeometry x="670" y="20" width="180" height="200" as="geometry" />
        </mxCell>
        <mxCell id="GSQ9UzFw_TCBcSxtlAvW-10" value="- userID: int" style="text;strokeColor=none;fillColor=none;align=left;verticalAlign=top;spacingLeft=4;spacingRight=4;overflow=hidden;rotatable=0;points=[[0,0.5],[1,0.5]];portConstraint=eastwest;whiteSpace=wrap;html=1;" vertex="1" parent="GSQ9UzFw_TCBcSxtlAvW-9">
          <mxGeometry y="26" width="180" height="24" as="geometry" />
        </mxCell>
        <mxCell id="GSQ9UzFw_TCBcSxtlAvW-11" value="" style="line;strokeWidth=1;fillColor=none;align=left;verticalAlign=middle;spacingTop=-1;spacingLeft=3;spacingRight=3;rotatable=0;labelPosition=right;points=[];portConstraint=eastwest;strokeColor=inherit;" vertex="1" parent="GSQ9UzFw_TCBcSxtlAvW-9">
          <mxGeometry y="50" width="180" height="8" as="geometry" />
        </mxCell>
        <mxCell id="GSQ9UzFw_TCBcSxtlAvW-12" value="&lt;div&gt;&amp;lt;&amp;lt;update&amp;gt;&amp;gt;&lt;/div&gt;+ addSupplier(supplier: Supplier): string&lt;div&gt;+ removeSupplier (supplierID: int): string&lt;/div&gt;&lt;div&gt;+ editSupplier(supplierID: int): string&lt;/div&gt;&lt;div&gt;+ removeWorker(userID: int): boolean&lt;/div&gt;" style="text;strokeColor=none;fillColor=none;align=left;verticalAlign=top;spacingLeft=4;spacingRight=4;overflow=hidden;rotatable=0;points=[[0,0.5],[1,0.5]];portConstraint=eastwest;whiteSpace=wrap;html=1;" vertex="1" parent="GSQ9UzFw_TCBcSxtlAvW-9">
          <mxGeometry y="58" width="180" height="142" as="geometry" />
        </mxCell>
        <mxCell id="GSQ9UzFw_TCBcSxtlAvW-13" value="Assistant" style="swimlane;fontStyle=1;align=center;verticalAlign=top;childLayout=stackLayout;horizontal=1;startSize=26;horizontalStack=0;resizeParent=1;resizeParentMax=0;resizeLast=0;collapsible=1;marginBottom=0;whiteSpace=wrap;html=1;" vertex="1" parent="1">
          <mxGeometry x="950" y="60" width="240" height="220" as="geometry" />
        </mxCell>
        <mxCell id="GSQ9UzFw_TCBcSxtlAvW-14" value="- userID: int" style="text;strokeColor=none;fillColor=none;align=left;verticalAlign=top;spacingLeft=4;spacingRight=4;overflow=hidden;rotatable=0;points=[[0,0.5],[1,0.5]];portConstraint=eastwest;whiteSpace=wrap;html=1;" vertex="1" parent="GSQ9UzFw_TCBcSxtlAvW-13">
          <mxGeometry y="26" width="240" height="24" as="geometry" />
        </mxCell>
        <mxCell id="GSQ9UzFw_TCBcSxtlAvW-15" value="" style="line;strokeWidth=1;fillColor=none;align=left;verticalAlign=middle;spacingTop=-1;spacingLeft=3;spacingRight=3;rotatable=0;labelPosition=right;points=[];portConstraint=eastwest;strokeColor=inherit;" vertex="1" parent="GSQ9UzFw_TCBcSxtlAvW-13">
          <mxGeometry y="50" width="240" height="8" as="geometry" />
        </mxCell>
        <mxCell id="GSQ9UzFw_TCBcSxtlAvW-16" value="&lt;div&gt;&amp;lt;&amp;lt;update&amp;gt;&amp;gt;&lt;/div&gt;+ addRepair(repair: RepairProduct): string&lt;div&gt;+ deleteRepair(repairID: int): string&lt;/div&gt;&lt;div&gt;+ editRepair(repairID: int): string&lt;/div&gt;&lt;div&gt;+ addReturn(return: ReturnProduct): string&lt;div&gt;+ deleteReturn(returnID: int): string&lt;/div&gt;&lt;div&gt;+ editReturn(returnID: int): string&lt;/div&gt;&lt;/div&gt;&lt;div&gt;+ addProduct(product: Product): string&lt;div&gt;+ deleteProduct(p&lt;span style=&quot;background-color: transparent; color: light-dark(rgb(0, 0, 0), rgb(255, 255, 255));&quot;&gt;roduct&lt;/span&gt;&lt;span style=&quot;background-color: transparent; color: light-dark(rgb(0, 0, 0), rgb(255, 255, 255));&quot;&gt;ID: int): string&lt;/span&gt;&lt;/div&gt;&lt;div&gt;+ editProduct(p&lt;span style=&quot;background-color: transparent; color: light-dark(rgb(0, 0, 0), rgb(255, 255, 255));&quot;&gt;roduct&lt;/span&gt;&lt;span style=&quot;background-color: transparent; color: light-dark(rgb(0, 0, 0), rgb(255, 255, 255));&quot;&gt;ID: int): string&lt;/span&gt;&lt;/div&gt;&lt;/div&gt;" style="text;strokeColor=none;fillColor=none;align=left;verticalAlign=top;spacingLeft=4;spacingRight=4;overflow=hidden;rotatable=0;points=[[0,0.5],[1,0.5]];portConstraint=eastwest;whiteSpace=wrap;html=1;" vertex="1" parent="GSQ9UzFw_TCBcSxtlAvW-13">
          <mxGeometry y="58" width="240" height="162" as="geometry" />
        </mxCell>
      </root>
    </mxGraphModel>
  </diagram>
</mxfile>
